<?xml version="1.0" standalone="no"?>
<!DOCTYPE svg PUBLIC "-//W3C//DTD SVG 20010904//EN"
 "http://www.w3.org/TR/2001/REC-SVG-20010904/DTD/svg10.dtd">
<svg version="1.0" xmlns="http://www.w3.org/2000/svg"
 width="700.000000pt" height="700.000000pt" viewBox="0 0 700.000000 700.000000"
 preserveAspectRatio="xMidYMid meet">
<metadata>
Created by potrace 1.14, written by Peter Selinger 2001-2017
</metadata>
<g transform="translate(0.000000,700.000000) scale(0.100000,-0.100000)"
fill="#000000" stroke="none">
<path d="M2750 4520 c-107 -3 -201 -9 -208 -14 -39 -24 -28 -100 16 -117 15
-6 43 -9 63 -8 21 2 45 -3 55 -11 11 -9 15 -10 10 -2 -4 7 -2 12 6 13 18 2 21
1 42 -7 11 -4 17 -3 14 2 -4 5 20 9 53 9 32 0 59 -4 59 -8 0 -5 4 -5 10 -2 18
11 51 14 45 4 -4 -5 -1 -9 4 -9 6 0 11 4 11 9 0 6 9 9 20 8 11 -1 20 -5 20 -9
0 -4 5 -8 11 -8 5 0 8 3 6 8 -3 4 28 7 69 8 41 0 74 -3 74 -8 0 -4 5 -8 11 -8
5 0 7 5 4 10 -3 6 0 10 9 10 8 0 17 -6 19 -12 4 -10 6 -10 6 0 1 6 6 12 12 12
5 0 7 -4 4 -10 -3 -5 -1 -10 4 -10 6 0 11 5 11 11 0 6 14 9 33 7 20 -2 31 -8
29 -16 -1 -8 2 -11 8 -7 6 3 8 11 5 16 -4 5 124 9 320 8 180 0 329 1 331 4 2
2 26 1 54 -3 27 -4 50 -4 50 -1 0 3 63 6 139 6 77 1 137 -3 135 -7 -3 -4 -3
-8 0 -8 10 0 46 69 46 89 0 11 -9 30 -21 42 -21 21 -23 21 -707 17 -378 -2
-775 -5 -882 -8z"/>
<path d="M4236 4367 c3 -10 9 -15 12 -12 3 3 0 11 -7 18 -10 9 -11 8 -5 -6z"/>
<path d="M2556 4358 c3 -5 10 -6 15 -3 13 9 11 12 -6 12 -8 0 -12 -4 -9 -9z"/>
<path d="M3576 4358 c3 -5 10 -6 15 -3 13 9 11 12 -6 12 -8 0 -12 -4 -9 -9z"/>
<path d="M3776 4358 c3 -5 10 -6 15 -3 13 9 11 12 -6 12 -8 0 -12 -4 -9 -9z"/>
<path d="M3875 4361 c-3 -5 -2 -12 3 -15 5 -3 9 1 9 9 0 17 -3 19 -12 6z"/>
<path d="M3906 4358 c3 -5 10 -6 15 -3 13 9 11 12 -6 12 -8 0 -12 -4 -9 -9z"/>
<path d="M2670 4346 c0 -2 7 -7 16 -10 8 -3 12 -2 9 4 -6 10 -25 14 -25 6z"/>
<path d="M3020 4340 c8 -5 20 -10 25 -10 6 0 3 5 -5 10 -8 5 -19 10 -25 10 -5
0 -3 -5 5 -10z"/>
<path d="M3365 4340 c-3 -6 1 -7 9 -4 18 7 21 14 7 14 -6 0 -13 -4 -16 -10z"/>
<path d="M3993 4335 c0 -8 4 -12 9 -9 5 3 6 10 3 15 -9 13 -12 11 -12 -6z"/>
<path d="M2600 4320 c-9 -6 -10 -10 -3 -10 6 0 15 5 18 10 8 12 4 12 -15 0z"/>
<path d="M3687 4213 c-1 -1 -337 -3 -746 -5 -809 -3 -794 -2 -806 -58 -7 -30
9 -66 33 -75 19 -7 1081 -7 1092 0 6 3 10 3 10 -2 0 -4 11 -8 25 -8 14 0 25 2
25 5 0 3 85 5 189 5 104 0 187 -3 184 -7 -2 -5 1 -8 6 -8 6 0 11 3 11 8 0 4
15 8 34 8 28 1 34 -2 31 -17 -2 -10 0 -21 4 -24 5 -2 8 5 7 17 0 12 5 23 13
26 9 3 11 0 6 -8 -6 -10 -4 -11 6 -4 22 13 230 14 222 0 -5 -8 -3 -8 8 0 20
15 75 12 71 -4 -1 -8 2 -11 8 -7 6 3 8 10 5 14 -8 14 438 11 454 -2 11 -9 13
-9 8 0 -5 7 5 11 31 10 25 -2 36 -6 34 -15 -1 -8 2 -11 8 -7 6 3 8 10 6 14 -3
4 30 7 72 7 49 -1 82 4 90 12 8 7 17 10 21 8 4 -3 8 0 8 7 0 7 4 24 7 38 5 18
2 32 -13 50 l-19 24 -572 0 c-314 0 -572 -1 -573 -2z"/>
<path d="M3960 4060 c-9 -6 -10 -10 -3 -10 6 0 15 5 18 10 8 12 4 12 -15 0z"/>
<path d="M4146 4062 c-2 -4 4 -8 14 -8 10 0 16 4 14 8 -3 4 -9 8 -14 8 -5 0
-11 -4 -14 -8z"/>
<path d="M4513 4063 c4 -3 1 -13 -6 -22 -11 -14 -10 -14 5 -2 16 12 16 31 1
31 -4 0 -3 -3 0 -7z"/>
<path d="M2149 4043 c-13 -16 -12 -17 4 -4 9 7 17 15 17 17 0 8 -8 3 -21 -13z"/>
<path d="M2415 4049 c-4 -6 -5 -12 -2 -15 2 -3 7 2 10 11 7 17 1 20 -8 4z"/>
<path d="M2493 4045 c0 -8 4 -12 9 -9 5 3 6 10 3 15 -9 13 -12 11 -12 -6z"/>
<path d="M2595 4051 c-3 -5 -2 -12 3 -15 5 -3 9 1 9 9 0 17 -3 19 -12 6z"/>
<path d="M3013 4045 c0 -8 4 -12 9 -9 5 3 6 10 3 15 -9 13 -12 11 -12 -6z"/>
<path d="M3462 4045 c15 -16 20 -17 30 -6 11 11 10 13 0 7 -7 -4 -21 -2 -30 5
-15 12 -15 11 0 -6z"/>
<path d="M3513 4045 c0 -8 4 -12 9 -9 5 3 6 10 3 15 -9 13 -12 11 -12 -6z"/>
<path d="M2364 4042 c4 -3 14 -7 22 -8 9 -1 13 0 10 4 -4 3 -14 7 -22 8 -9 1
-13 0 -10 -4z"/>
<path d="M3670 4036 c7 -7 13 -7 20 0 6 6 3 10 -10 10 -13 0 -16 -4 -10 -10z"/>
<path d="M4836 4033 c-6 -14 -5 -15 5 -6 7 7 10 15 7 18 -3 3 -9 -2 -12 -12z"/>
<path d="M2190 4026 c0 -2 7 -7 16 -10 8 -3 12 -2 9 4 -6 10 -25 14 -25 6z"/>
<path d="M2250 4026 c0 -2 7 -7 16 -10 8 -3 12 -2 9 4 -6 10 -25 14 -25 6z"/>
<path d="M4033 4015 c0 -8 4 -12 9 -9 5 3 6 10 3 15 -9 13 -12 11 -12 -6z"/>
<path d="M4353 4015 c0 -8 4 -12 9 -9 5 3 6 10 3 15 -9 13 -12 11 -12 -6z"/>
<path d="M1941 3900 c-63 -7 -82 -27 -79 -81 2 -20 6 -35 10 -33 4 2 9 0 13
-6 3 -5 16 -10 29 -10 12 0 28 -6 35 -12 8 -7 11 -8 8 -2 -4 8 5 11 28 10 19
0 35 -5 35 -11 0 -6 3 -6 8 1 9 13 112 12 112 -1 0 -5 4 -4 9 4 7 11 13 12 23
3 11 -9 17 -9 26 0 9 9 12 9 12 -3 0 -12 2 -12 10 1 8 12 10 12 10 1 0 -11 3
-11 15 -1 12 10 15 10 15 -1 0 -9 3 -10 8 -3 9 14 104 13 114 -1 5 -6 8 -5 8
3 0 6 5 12 11 12 5 0 7 -5 3 -12 -5 -7 -3 -8 7 -2 20 12 89 12 89 -1 0 -6 3
-6 8 1 9 13 112 12 112 -1 0 -5 5 -3 10 5 7 12 12 12 21 3 9 -9 16 -10 26 -2
10 9 13 8 13 -2 0 -11 2 -11 10 1 8 12 10 12 10 1 0 -11 3 -11 15 -1 12 10 15
10 15 -1 0 -9 3 -10 8 -3 9 14 104 13 114 -1 5 -6 8 -5 8 3 0 6 5 12 11 12 5
0 7 -5 3 -12 -5 -7 -3 -8 7 -2 20 12 89 12 89 -1 0 -6 3 -6 8 1 9 13 112 12
112 -1 0 -5 4 -4 9 4 8 12 12 12 24 2 11 -9 17 -9 22 0 6 8 10 7 16 -2 7 -11
9 -11 9 1 0 13 1 13 10 0 5 -8 10 -10 10 -4 0 12 49 13 69 0 9 -6 12 -5 8 1
-4 7 5 10 22 9 17 0 27 -5 23 -11 -3 -5 1 -4 10 3 13 10 17 10 21 0 4 -10 6
-10 6 0 1 6 6 12 12 12 5 0 7 -6 3 -12 -6 -10 -4 -10 7 -2 16 12 108 13 127 1
6 -5 18 -5 25 0 19 13 88 12 80 -1 -5 -8 -3 -8 8 0 17 13 108 13 128 0 9 -6
12 -5 8 1 -4 7 5 10 22 9 17 0 27 -5 23 -11 -3 -5 2 -4 11 4 13 10 17 10 17 1
0 -10 3 -10 15 0 12 10 15 10 15 -1 0 -9 3 -10 8 -3 9 13 64 13 74 -1 5 -6 8
-5 8 4 0 11 3 11 17 0 9 -8 14 -9 10 -3 -4 8 2 11 18 10 14 0 25 -5 25 -11 0
-6 3 -6 8 0 9 14 72 14 72 0 0 -5 5 -3 10 5 9 13 10 13 10 0 0 -9 3 -11 8 -5
9 14 45 14 54 0 5 -7 8 -6 8 1 0 14 62 13 72 -1 5 -6 8 -5 8 4 0 11 3 11 17 0
9 -8 14 -9 10 -3 -4 8 2 11 18 10 14 0 25 -5 25 -11 0 -6 3 -6 8 1 9 13 64 13
74 -1 5 -6 8 -4 8 5 0 13 1 13 10 0 5 -8 10 -10 10 -5 0 6 11 12 26 13 17 1
23 -2 18 -10 -5 -7 -3 -8 7 -2 21 13 112 14 126 2 9 -7 17 -7 26 -1 19 15 90
15 80 0 -5 -9 -3 -9 8 -1 18 14 116 16 125 3 4 -6 11 -6 20 2 11 9 18 8 31 -2
11 -10 14 -10 9 -1 -4 7 -1 12 9 12 10 0 14 -5 9 -12 -6 -10 -4 -10 7 0 7 6
17 12 22 12 4 0 5 -6 1 -12 -6 -10 -4 -10 7 -2 8 6 35 11 61 12 25 0 55 5 66
11 11 6 21 8 24 6 2 -2 5 13 6 34 2 25 -4 46 -16 61 l-19 24 -1554 0 c-855 1
-1578 -1 -1608 -4z"/>
<path d="M1915 3751 c-3 -5 -2 -12 3 -15 5 -3 9 1 9 9 0 17 -3 19 -12 6z"/>
<path d="M3393 3745 c0 -8 4 -12 9 -9 5 3 6 10 3 15 -9 13 -12 11 -12 -6z"/>
<path d="M3633 3745 c0 -8 4 -12 9 -9 5 3 6 10 3 15 -9 13 -12 11 -12 -6z"/>
<path d="M4753 3745 c0 -8 4 -12 9 -9 5 3 6 10 3 15 -9 13 -12 11 -12 -6z"/>
<path d="M4993 3745 c0 -8 4 -12 9 -9 5 3 6 10 3 15 -9 13 -12 11 -12 -6z"/>
<path d="M1995 3730 c10 -11 20 -20 23 -20 3 0 -3 9 -13 20 -10 11 -20 20 -23
20 -3 0 3 -9 13 -20z"/>
<path d="M2107 3739 c7 -7 15 -10 18 -7 3 3 -2 9 -12 12 -14 6 -15 5 -6 -5z"/>
<path d="M2347 3739 c7 -7 15 -10 18 -7 3 3 -2 9 -12 12 -14 6 -15 5 -6 -5z"/>
<path d="M2475 3730 c10 -11 20 -20 23 -20 3 0 -3 9 -13 20 -10 11 -20 20 -23
20 -3 0 3 -9 13 -20z"/>
<path d="M2587 3739 c7 -7 15 -10 18 -7 3 3 -2 9 -12 12 -14 6 -15 5 -6 -5z"/>
<path d="M2827 3739 c7 -7 15 -10 18 -7 3 3 -2 9 -12 12 -14 6 -15 5 -6 -5z"/>
<path d="M2955 3730 c10 -11 20 -20 23 -20 3 0 -3 9 -13 20 -10 11 -20 20 -23
20 -3 0 3 -9 13 -20z"/>
<path d="M3067 3739 c7 -7 15 -10 18 -7 3 3 -2 9 -12 12 -14 6 -15 5 -6 -5z"/>
<path d="M3199 3733 c-13 -16 -12 -17 4 -4 9 7 17 15 17 17 0 8 -8 3 -21 -13z"/>
<path d="M4150 3740 c0 -5 5 -10 11 -10 5 0 7 5 4 10 -3 6 -8 10 -11 10 -2 0
-4 -4 -4 -10z"/>
<path d="M4470 3745 c0 -5 5 -17 10 -25 5 -8 10 -10 10 -5 0 6 -5 17 -10 25
-5 8 -10 11 -10 5z"/>
<path d="M5086 3738 c3 -5 10 -6 15 -3 13 9 11 12 -6 12 -8 0 -12 -4 -9 -9z"/>
<path d="M2390 3736 c0 -2 8 -10 18 -17 15 -13 16 -12 3 4 -13 16 -21 21 -21
13z"/>
<path d="M2870 3736 c0 -2 8 -10 18 -17 15 -13 16 -12 3 4 -13 16 -21 21 -21
13z"/>
<path d="M3330 3719 c0 -5 5 -7 10 -4 6 3 10 8 10 11 0 2 -4 4 -10 4 -5 0 -10
-5 -10 -11z"/>
<path d="M3510 3722 c0 -5 7 -9 15 -9 8 0 12 4 9 9 -3 4 -9 8 -15 8 -5 0 -9
-4 -9 -8z"/>
<path d="M3790 3716 c4 -4 16 -4 26 2 16 9 14 10 -8 9 -15 -1 -23 -6 -18 -11z"/>
<path d="M4630 3722 c0 -5 7 -9 15 -9 8 0 12 4 9 9 -3 4 -9 8 -15 8 -5 0 -9
-4 -9 -8z"/>
<path d="M4926 3718 c3 -5 10 -6 15 -3 13 9 11 12 -6 12 -8 0 -12 -4 -9 -9z"/>
<path d="M1240 3597 c-36 -9 -51 -34 -48 -81 2 -19 4 -33 6 -31 2 2 15 -3 29
-10 14 -7 34 -12 44 -10 11 2 19 0 19 -6 0 -5 5 -9 11 -9 5 0 7 5 4 10 -3 6 1
10 9 10 9 0 16 -6 16 -12 0 -10 2 -10 8 0 9 13 72 13 72 0 0 -4 5 -8 11 -8 5
0 7 5 4 10 -3 6 1 10 9 10 9 0 16 -4 16 -10 0 -5 5 -10 11 -10 5 0 7 5 4 10
-3 6 0 10 9 10 8 0 17 -6 19 -12 4 -10 6 -10 6 0 1 6 13 12 27 12 17 0 23 -4
18 -12 -5 -9 -2 -9 9 1 11 9 17 10 17 2 0 -6 5 -11 11 -11 5 0 7 5 4 10 -9 14
8 12 24 -2 10 -9 12 -9 7 -1 -8 15 55 13 66 -2 5 -6 8 -5 8 3 0 6 5 12 11 12
5 0 7 -6 3 -12 -6 -10 -5 -10 7 -1 15 12 77 12 98 -1 7 -5 10 -15 6 -25 -5
-12 -4 -13 6 -4 10 10 9 15 -1 28 -10 12 -10 15 2 15 8 0 20 -6 27 -12 11 -11
12 -10 7 0 -12 20 59 9 86 -14 l23 -19 -19 23 c-15 17 -16 22 -5 22 8 0 21 -6
28 -12 11 -11 12 -10 7 0 -6 9 1 12 26 9 43 -4 61 -15 54 -33 -3 -7 -2 -16 3
-18 11 -7 10 27 -2 42 -7 8 -5 12 5 12 8 0 20 -6 27 -12 11 -11 12 -10 6 0 -5
10 1 13 26 10 19 -2 37 -7 41 -13 5 -6 8 -5 8 3 0 6 5 12 11 12 5 0 7 -6 3
-12 -6 -10 -5 -10 7 -1 16 13 59 14 59 1 0 -4 5 -8 11 -8 5 0 7 5 4 10 -3 6 1
10 9 10 9 0 16 -6 16 -12 0 -10 2 -10 8 0 9 13 72 13 72 0 0 -4 5 -8 11 -8 5
0 7 5 4 10 -3 6 1 10 9 10 9 0 16 -4 16 -10 0 -5 5 -10 11 -10 5 0 7 5 4 10
-3 6 1 10 9 10 9 0 16 -6 16 -12 0 -10 2 -10 8 0 9 13 72 13 72 0 0 -4 5 -8
11 -8 5 0 7 4 4 10 -11 18 54 4 77 -16 l23 -19 -19 23 c-15 17 -16 22 -5 22 8
0 21 -6 28 -12 11 -11 12 -10 7 0 -12 20 59 9 86 -14 l23 -19 -19 23 c-15 17
-16 22 -5 22 8 0 21 -6 28 -12 11 -11 12 -10 7 0 -6 10 1 12 28 9 20 -2 39 -7
43 -10 3 -4 11 -7 17 -7 6 0 4 5 -4 10 -11 8 -5 9 22 7 21 -2 41 -7 45 -10 3
-4 11 -7 17 -7 6 0 5 4 -3 9 -9 6 6 8 42 7 39 -1 63 -8 79 -22 l23 -19 -19 23
c-15 17 -16 22 -5 22 8 0 21 -6 28 -12 11 -11 12 -10 7 0 -6 10 1 12 28 9 20
-2 39 -7 43 -10 3 -4 11 -7 17 -7 6 0 4 5 -4 10 -11 8 -5 9 22 7 21 -2 48 -12
60 -23 l23 -19 -19 23 c-15 17 -16 22 -5 22 8 0 21 -6 28 -12 11 -11 12 -10 7
0 -12 20 59 9 86 -14 l23 -19 -19 23 c-15 17 -16 22 -5 22 8 0 21 -6 28 -12
11 -11 12 -10 7 0 -6 10 1 12 28 9 20 -2 39 -7 43 -10 3 -4 11 -7 17 -7 6 0 4
5 -4 10 -11 8 -5 9 22 7 21 -2 41 -7 45 -10 3 -4 11 -7 17 -7 6 0 4 4 -4 9 -9
7 4 9 40 8 30 -1 58 -6 62 -12 5 -6 8 -5 8 3 0 6 5 12 11 12 5 0 8 -4 5 -8 -3
-5 1 -9 9 -9 8 0 12 4 9 8 -6 10 68 5 85 -5 7 -5 10 -15 6 -25 -5 -12 -4 -13
6 -4 10 10 9 15 -1 28 -10 12 -10 15 2 15 8 0 20 -6 27 -12 10 -9 12 -9 7 -1
-8 15 55 13 66 -2 5 -6 8 -5 8 3 0 6 5 12 11 12 5 0 7 -6 3 -12 -6 -10 -5 -10
7 -1 15 12 77 12 98 -1 7 -5 10 -15 6 -25 -5 -12 -4 -13 6 -4 10 10 9 15 -1
28 -10 12 -10 15 2 15 8 0 20 -6 27 -12 10 -9 12 -9 7 -1 -4 8 8 11 44 10 27
-1 50 -6 50 -11 0 -6 5 -5 12 2 15 15 31 16 22 0 -5 -7 -3 -8 7 -3 34 22 80 2
63 -27 -5 -10 -4 -10 6 -1 11 10 11 15 0 28 -10 12 -10 15 2 15 8 0 20 -6 27
-12 11 -11 12 -10 6 0 -5 10 1 13 26 10 19 -2 37 -7 41 -13 5 -6 8 -5 8 3 0 6
5 12 11 12 5 0 7 -6 3 -12 -6 -10 -5 -10 7 -1 16 13 59 14 59 1 0 -4 5 -8 11
-8 5 0 7 5 4 10 -3 6 1 10 9 10 9 0 16 -6 16 -12 0 -10 2 -10 8 0 9 13 72 13
72 0 0 -4 5 -8 11 -8 5 0 7 5 4 10 -3 6 1 10 9 10 9 0 16 -4 16 -10 0 -5 5
-10 11 -10 5 0 7 5 4 10 -8 13 57 8 67 -5 5 -6 8 -5 8 3 0 14 47 11 71 -4 7
-4 10 -3 5 4 -8 14 56 11 66 -3 5 -6 8 -5 8 3 0 6 5 12 11 12 5 0 7 -6 3 -12
-6 -10 -5 -10 7 -1 15 12 77 12 98 -1 7 -5 10 -15 6 -25 -5 -12 -4 -13 6 -4
10 10 9 15 -1 28 -10 12 -10 15 2 15 8 0 20 -6 27 -12 11 -11 12 -10 7 0 -12
20 59 9 86 -14 l23 -19 -19 23 c-15 17 -16 22 -5 22 8 0 21 -6 28 -12 11 -11
12 -10 7 0 -6 9 1 12 26 9 43 -4 61 -15 54 -33 -3 -7 -2 -16 3 -18 11 -7 10
27 -2 42 -13 16 14 16 32 0 11 -11 12 -10 6 0 -5 10 1 13 26 10 19 -2 37 -7
41 -13 5 -6 8 -5 8 3 0 6 5 12 11 12 5 0 7 -6 3 -12 -6 -10 -5 -10 7 -1 16 13
59 14 59 1 0 -4 5 -8 11 -8 5 0 7 5 4 10 -3 6 1 10 9 10 9 0 16 -6 16 -12 0
-10 2 -10 8 0 9 13 72 13 72 0 0 -4 5 -8 11 -8 5 0 7 5 4 10 -3 6 1 10 9 10 9
0 16 -4 16 -10 0 -5 5 -10 11 -10 5 0 7 5 4 10 -3 6 0 10 9 10 8 0 17 -6 19
-12 4 -10 6 -10 6 0 1 6 13 12 27 12 17 0 23 -4 18 -12 -6 -10 -4 -10 8 0 13
10 17 10 21 0 4 -10 6 -10 6 0 1 6 12 12 25 12 14 0 28 5 31 10 4 6 10 8 14 6
4 -3 8 3 9 12 5 44 0 68 -17 86 -19 19 -60 19 -2275 20 -1241 1 -2269 -2
-2286 -7z"/>
<path d="M5753 3445 c0 -8 4 -15 9 -15 4 0 8 4 8 9 0 6 -4 12 -8 15 -5 3 -9
-1 -9 -9z"/>
<path d="M2573 3431 c0 -11 5 -18 9 -15 4 3 5 11 1 19 -7 21 -12 19 -10 -4z"/>
<path d="M3213 3431 c0 -11 5 -18 9 -15 4 3 5 11 1 19 -7 21 -12 19 -10 -4z"/>
<path d="M4240 3440 c-9 -6 -10 -10 -3 -10 6 0 15 5 18 10 8 12 4 12 -15 0z"/>
<path d="M1350 3436 c0 -2 8 -10 18 -17 15 -13 16 -12 3 4 -13 16 -21 21 -21
13z"/>
<path d="M1510 3436 c0 -2 8 -10 18 -17 15 -13 16 -12 3 4 -13 16 -21 21 -21
13z"/>
<path d="M2310 3436 c0 -2 8 -10 18 -17 15 -13 16 -12 3 4 -13 16 -21 21 -21
13z"/>
<path d="M2470 3436 c0 -2 8 -10 18 -17 15 -13 16 -12 3 4 -13 16 -21 21 -21
13z"/>
<path d="M2855 3431 c-3 -5 -2 -12 3 -15 5 -3 9 1 9 9 0 17 -3 19 -12 6z"/>
<path d="M3175 3431 c-3 -5 -2 -12 3 -15 5 -3 9 1 9 9 0 17 -3 19 -12 6z"/>
<path d="M3495 3431 c-3 -5 -2 -12 3 -15 5 -3 9 1 9 9 0 17 -3 19 -12 6z"/>
<path d="M4550 3436 c0 -2 8 -10 18 -17 15 -13 16 -12 3 4 -13 16 -21 21 -21
13z"/>
<path d="M5510 3436 c0 -2 8 -10 18 -17 15 -13 16 -12 3 4 -13 16 -21 21 -21
13z"/>
<path d="M5670 3436 c0 -2 8 -10 18 -17 15 -13 16 -12 3 4 -13 16 -21 21 -21
13z"/>
<path d="M1285 3420 c-3 -6 1 -7 9 -4 18 7 21 14 7 14 -6 0 -13 -4 -16 -10z"/>
<path d="M1424 3418 c-3 -4 5 -5 17 -3 30 6 36 14 9 12 -12 -1 -24 -5 -26 -9z"/>
<path d="M1705 3420 c-3 -6 1 -7 9 -4 18 7 21 14 7 14 -6 0 -13 -4 -16 -10z"/>
<path d="M2185 3420 c-3 -6 1 -7 9 -4 18 7 21 14 7 14 -6 0 -13 -4 -16 -10z"/>
<path d="M2245 3420 c-3 -6 1 -7 9 -4 18 7 21 14 7 14 -6 0 -13 -4 -16 -10z"/>
<path d="M2384 3418 c-3 -4 5 -5 17 -3 30 6 36 14 9 12 -12 -1 -24 -5 -26 -9z"/>
<path d="M3705 3420 c-3 -6 1 -7 9 -4 18 7 21 14 7 14 -6 0 -13 -4 -16 -10z"/>
<path d="M3945 3420 c-3 -6 1 -7 9 -4 18 7 21 14 7 14 -6 0 -13 -4 -16 -10z"/>
<path d="M4425 3420 c-3 -6 1 -7 9 -4 18 7 21 14 7 14 -6 0 -13 -4 -16 -10z"/>
<path d="M4485 3420 c-3 -6 1 -7 9 -4 18 7 21 14 7 14 -6 0 -13 -4 -16 -10z"/>
<path d="M4624 3418 c-3 -4 5 -5 17 -3 30 6 36 14 9 12 -12 -1 -24 -5 -26 -9z"/>
<path d="M4725 3420 c-3 -6 1 -7 9 -4 18 7 21 14 7 14 -6 0 -13 -4 -16 -10z"/>
<path d="M4905 3420 c-3 -6 1 -7 9 -4 18 7 21 14 7 14 -6 0 -13 -4 -16 -10z"/>
<path d="M5385 3420 c-3 -6 1 -7 9 -4 18 7 21 14 7 14 -6 0 -13 -4 -16 -10z"/>
<path d="M5445 3420 c-3 -6 1 -7 9 -4 18 7 21 14 7 14 -6 0 -13 -4 -16 -10z"/>
<path d="M5584 3418 c-3 -4 5 -5 17 -3 30 6 36 14 9 12 -12 -1 -24 -5 -26 -9z"/>
<path d="M2966 3302 l-1060 -2 -23 -22 c-22 -21 -30 -62 -15 -84 11 -17 45
-31 70 -29 15 1 21 -3 18 -11 -3 -7 0 -16 7 -20 7 -4 9 -4 5 1 -4 4 -3 14 3
22 9 10 15 10 25 2 8 -6 14 -8 14 -3 0 5 16 9 35 9 24 0 34 -4 31 -12 -3 -7 0
-15 6 -19 6 -4 8 -3 5 3 -4 6 0 16 8 23 12 10 15 10 15 -1 0 -10 3 -10 12 -1
9 9 16 8 30 -5 15 -13 18 -14 13 -2 -4 11 3 14 32 14 32 -1 38 -5 38 -22 0
-12 3 -24 6 -28 4 -3 6 2 6 12 0 10 1 23 2 28 1 11 100 13 118 2 6 -4 14 -1
16 5 4 10 6 10 6 0 1 -7 6 -10 13 -6 6 4 26 8 45 9 24 1 32 -2 29 -11 -3 -8 0
-16 6 -20 6 -4 8 -3 5 3 -4 6 0 16 8 23 15 13 21 3 15 -25 -1 -5 2 -6 7 -2 4
5 8 14 8 19 0 7 24 12 58 13 34 1 57 -3 57 -9 0 -6 5 -4 10 4 9 13 10 13 10 0
0 -9 3 -11 8 -5 9 14 132 14 132 0 0 -5 5 -3 10 5 9 13 10 13 10 0 0 -9 3 -11
8 -5 4 6 34 11 67 11 33 0 63 -5 67 -11 5 -6 8 -4 8 5 0 13 1 13 10 0 5 -8 10
-10 10 -5 0 14 130 14 130 0 0 -5 5 -3 10 5 9 13 10 13 10 0 0 -9 3 -11 8 -5
4 6 34 11 67 11 33 0 63 -5 67 -11 5 -6 8 -4 8 5 0 13 1 13 10 0 5 -8 10 -10
10 -5 0 6 20 11 45 11 36 0 44 -3 40 -16 -3 -10 -1 -9 9 3 10 14 15 15 19 5 4
-10 6 -10 6 1 1 11 4 11 18 0 9 -8 14 -9 10 -3 -7 13 51 13 72 0 9 -6 12 -5 8
0 -3 5 10 10 29 10 19 0 34 -5 34 -11 0 -5 5 -3 10 5 9 13 10 13 10 0 0 -9 3
-11 8 -5 4 6 34 11 67 11 33 0 63 -5 67 -11 5 -6 8 -4 8 5 0 13 1 13 10 0 5
-8 10 -10 10 -5 0 7 48 10 129 10 84 0 127 -3 123 -10 -3 -5 2 -4 11 4 14 11
17 11 18 0 1 -8 1 -18 0 -22 -1 -5 3 -6 8 -2 6 3 8 11 5 18 -3 9 7 13 31 13
19 0 35 -4 35 -8 0 -4 5 -8 11 -8 5 0 8 3 5 8 -2 4 20 7 50 7 30 0 54 -4 54
-10 0 -5 5 -3 10 5 9 13 10 13 10 0 0 -13 1 -13 10 0 9 13 10 13 10 0 0 -9 3
-11 8 -5 9 14 112 14 113 0 1 -5 1 -14 0 -18 -1 -5 3 -6 8 -2 6 3 8 11 5 19
-6 15 57 17 68 1 5 -6 8 -4 8 5 0 13 1 13 10 0 8 -12 10 -12 10 -1 0 11 3 11
17 0 9 -8 14 -9 10 -3 -3 6 0 11 8 11 8 0 11 -5 8 -11 -5 -8 -3 -8 8 0 17 12
48 12 68 0 9 -6 12 -5 8 0 -3 6 5 10 18 10 13 0 21 -4 18 -10 -4 -5 -1 -6 8 0
20 12 99 12 99 0 0 -6 5 -4 10 4 9 13 10 13 10 0 0 -13 1 -13 10 0 9 13 10 13
11 0 1 -8 1 -19 0 -23 -1 -5 3 -6 8 -2 6 3 8 11 5 19 -5 14 51 16 73 3 6 -4
15 -2 18 3 5 7 12 5 21 -7 11 -14 13 -14 8 -2 -4 13 1 16 23 15 15 -1 34 -5
42 -10 10 -6 12 -5 7 2 -10 16 7 15 23 0 11 -10 13 -10 7 0 -4 7 -1 12 7 12
22 0 47 34 47 63 0 37 -33 67 -72 67 -467 4 -1263 4 -2102 2z"/>
<path d="M2315 3151 c-3 -5 -2 -12 3 -15 5 -3 9 1 9 9 0 17 -3 19 -12 6z"/>
<path d="M3875 3151 c-3 -5 -2 -12 3 -15 5 -3 9 1 9 9 0 17 -3 19 -12 6z"/>
<path d="M4235 3151 c-3 -5 -2 -12 3 -15 5 -3 9 1 9 9 0 17 -3 19 -12 6z"/>
<path d="M4395 3151 c-3 -5 -2 -12 3 -15 5 -3 9 1 9 9 0 17 -3 19 -12 6z"/>
<path d="M3356 3138 c3 -5 10 -6 15 -3 13 9 11 12 -6 12 -8 0 -12 -4 -9 -9z"/>
<path d="M3919 3148 c-6 -20 -6 -39 0 -42 4 -3 7 6 7 20 0 20 -4 32 -7 22z"/>
<path d="M4159 3138 c-5 -18 -6 -38 -1 -34 7 8 12 36 6 36 -2 0 -4 -1 -5 -2z"/>
<path d="M2427 3119 c7 -7 15 -10 18 -7 3 3 -2 9 -12 12 -14 6 -15 5 -6 -5z"/>
<path d="M3406 3118 c3 -5 10 -6 15 -3 13 9 11 12 -6 12 -8 0 -12 -4 -9 -9z"/>
<path d="M3456 3118 c3 -5 10 -6 15 -3 13 9 11 12 -6 12 -8 0 -12 -4 -9 -9z"/>
<path d="M4347 3119 c7 -7 15 -10 18 -7 3 3 -2 9 -12 12 -14 6 -15 5 -6 -5z"/>
<path d="M4587 3119 c7 -7 15 -10 18 -7 3 3 -2 9 -12 12 -14 6 -15 5 -6 -5z"/>
<path d="M4970 3121 c0 -6 4 -13 10 -16 6 -3 7 1 4 9 -7 18 -14 21 -14 7z"/>
<path d="M2662 2990 l-493 -5 -19 -25 c-24 -30 -25 -49 -5 -76 8 -12 11 -24 7
-28 -3 -4 2 -4 13 0 15 6 17 4 11 -12 -6 -15 -5 -17 5 -6 25 24 94 2 71 -23
-4 -5 -1 -5 6 -1 10 6 10 11 1 22 -9 11 -7 14 14 14 14 0 28 -6 30 -12 4 -10
6 -10 6 0 1 6 12 12 25 12 13 0 27 -6 29 -12 4 -10 6 -10 6 0 1 10 32 13 137
11 74 0 137 1 139 3 2 2 35 1 74 -2 43 -3 73 -1 76 5 3 6 7 5 11 -3 3 -6 11
-9 17 -5 15 9 67 10 68 1 1 -5 2 -12 3 -17 3 -20 13 -20 12 0 -1 20 4 22 56
23 31 1 54 -3 51 -8 -4 -5 0 -6 8 -1 21 14 230 13 225 -1 -2 -6 2 -11 9 -11 7
0 11 6 8 13 -3 8 2 11 14 10 10 -2 18 -10 18 -19 0 -8 3 -19 7 -22 3 -4 5 5 4
19 -3 23 0 26 23 23 17 -3 26 -10 25 -20 -1 -9 3 -14 8 -11 5 3 7 11 5 18 -7
19 608 23 631 4 11 -9 14 -10 8 0 -11 18 34 15 55 -4 13 -12 19 -12 25 -3 4 7
3 10 -4 5 -6 -3 -13 -2 -17 3 -3 6 91 10 257 10 145 0 273 2 286 5 12 3 22 2
22 -2 0 -4 15 -7 34 -7 19 0 32 3 29 8 -2 4 1 7 6 7 6 0 11 -6 11 -12 0 -8 3
-9 8 -3 4 6 31 10 60 11 57 1 77 13 87 54 4 18 0 34 -15 53 l-22 28 -836 -3
c-461 -2 -1059 -5 -1330 -8z"/>
<path d="M3586 2838 c3 -5 10 -6 15 -3 13 9 11 12 -6 12 -8 0 -12 -4 -9 -9z"/>
<path d="M3777 2835 c-4 -8 -3 -16 1 -19 4 -3 9 4 9 15 2 23 -3 25 -10 4z"/>
<path d="M3880 2840 c-9 -6 -10 -10 -3 -10 6 0 15 5 18 10 8 12 4 12 -15 0z"/>
<path d="M3946 2838 c3 -5 10 -6 15 -3 13 9 11 12 -6 12 -8 0 -12 -4 -9 -9z"/>
<path d="M4136 2842 c-3 -5 1 -9 9 -9 8 0 12 4 9 9 -3 4 -7 8 -9 8 -2 0 -6 -4
-9 -8z"/>
<path d="M4176 2838 c3 -5 10 -6 15 -3 13 9 11 12 -6 12 -8 0 -12 -4 -9 -9z"/>
<path d="M4776 2838 c3 -5 10 -6 15 -3 13 9 11 12 -6 12 -8 0 -12 -4 -9 -9z"/>
<path d="M2415 2831 c-3 -5 -2 -12 3 -15 5 -3 9 1 9 9 0 17 -3 19 -12 6z"/>
<path d="M2613 2825 c0 -8 4 -12 9 -9 5 3 6 10 3 15 -9 13 -12 11 -12 -6z"/>
<path d="M2655 2831 c-3 -5 -2 -12 3 -15 5 -3 9 1 9 9 0 17 -3 19 -12 6z"/>
<path d="M2815 2820 c3 -5 8 -10 11 -10 2 0 4 5 4 10 0 6 -5 10 -11 10 -5 0
-7 -4 -4 -10z"/>
<path d="M3055 2820 c3 -5 8 -10 11 -10 2 0 4 5 4 10 0 6 -5 10 -11 10 -5 0
-7 -4 -4 -10z"/>
<path d="M3455 2820 c3 -5 8 -10 11 -10 2 0 4 5 4 10 0 6 -5 10 -11 10 -5 0
-7 -4 -4 -10z"/>
<path d="M4015 2820 c3 -5 8 -10 11 -10 2 0 4 5 4 10 0 6 -5 10 -11 10 -5 0
-7 -4 -4 -10z"/>
<path d="M4285 2820 c-3 -6 1 -7 9 -4 18 7 21 14 7 14 -6 0 -13 -4 -16 -10z"/>
<path d="M4345 2820 c-3 -6 1 -7 9 -4 18 7 21 14 7 14 -6 0 -13 -4 -16 -10z"/>
<path d="M4695 2820 c-3 -5 -1 -10 4 -10 6 0 11 5 11 10 0 6 -2 10 -4 10 -3 0
-8 -4 -11 -10z"/>
<path d="M2316 2807 c3 -10 9 -15 12 -12 3 3 0 11 -7 18 -10 9 -11 8 -5 -6z"/>
<path d="M3150 2816 c0 -2 8 -10 18 -17 15 -13 16 -12 3 4 -13 16 -21 21 -21
13z"/>
<path d="M3196 2807 c3 -10 9 -15 12 -12 3 3 0 11 -7 18 -10 9 -11 8 -5 -6z"/>
<path d="M3550 2816 c0 -2 8 -10 18 -17 15 -13 16 -12 3 4 -13 16 -21 21 -21
13z"/>
<path d="M3870 2799 c0 -5 5 -7 10 -4 6 3 10 8 10 11 0 2 -4 4 -10 4 -5 0 -10
-5 -10 -11z"/>
<path d="M3676 2683 c-1 -1 -237 -4 -526 -6 l-524 -5 -24 -27 c-17 -21 -22
-35 -17 -54 4 -14 11 -27 16 -29 5 -2 9 -9 9 -15 0 -7 17 -12 42 -12 30 0 42
-4 40 -13 -1 -8 2 -11 8 -7 6 3 8 10 5 15 -3 6 11 8 32 6 23 -2 37 -8 35 -15
-1 -7 2 -10 8 -6 6 3 8 11 4 16 -4 7 5 9 22 7 16 -2 29 -8 29 -15 0 -6 3 -15
7 -19 4 -3 6 3 3 14 -4 21 -1 22 167 21 120 0 176 -3 187 -12 12 -9 13 -9 7 1
-6 9 19 12 114 11 67 0 124 2 128 5 3 3 14 -2 25 -11 11 -10 17 -12 13 -5 -4
7 -2 12 6 13 7 0 30 2 51 3 20 1 37 -2 37 -6 0 -11 23 -6 32 7 4 6 14 2 23
-10 9 -11 14 -14 10 -7 -3 6 0 13 7 13 7 1 20 2 28 3 8 1 21 -3 28 -8 9 -6 16
-6 20 1 8 13 54 12 64 -2 5 -6 8 -4 8 5 0 13 1 13 10 0 5 -8 10 -10 10 -4 0
12 49 12 70 -1 8 -5 11 -4 7 2 -4 5 6 10 23 10 16 0 27 -5 23 -10 -3 -5 4 -4
15 2 25 13 35 14 28 3 -3 -5 1 -9 9 -9 8 0 12 4 9 9 -3 4 2 8 11 8 9 0 14 -4
11 -8 -3 -5 1 -9 9 -9 8 0 12 4 9 8 -2 4 10 7 28 7 18 0 96 0 174 1 126 1 142
3 162 21 27 26 28 60 3 91 l-19 24 -357 0 c-196 0 -357 -1 -359 -2z"/>
<path d="M4356 2527 c3 -10 9 -15 12 -12 3 3 0 11 -7 18 -10 9 -11 8 -5 -6z"/>
<path d="M2639 2528 c-5 -18 -6 -38 -1 -34 7 8 12 36 6 36 -2 0 -4 -1 -5 -2z"/>
<path d="M2796 2513 c-6 -14 -5 -15 5 -6 7 7 10 15 7 18 -3 3 -9 -2 -12 -12z"/>
<path d="M3296 2518 c3 -5 10 -6 15 -3 13 9 11 12 -6 12 -8 0 -12 -4 -9 -9z"/>
<path d="M3536 2518 c3 -5 10 -6 15 -3 13 9 11 12 -6 12 -8 0 -12 -4 -9 -9z"/>
<path d="M3750 2519 c0 -5 5 -7 10 -4 6 3 10 8 10 11 0 2 -4 4 -10 4 -5 0 -10
-5 -10 -11z"/>
<path d="M4135 2520 c5 -8 42 -6 50 1 2 3 -8 5 -25 5 -16 0 -27 -3 -25 -6z"/>
<path d="M4296 2518 c3 -5 10 -6 15 -3 13 9 11 12 -6 12 -8 0 -12 -4 -9 -9z"/>
<path d="M2735 2511 c-3 -5 -2 -12 3 -15 5 -3 9 1 9 9 0 17 -3 19 -12 6z"/>
<path d="M2895 2500 c3 -5 8 -10 11 -10 2 0 4 5 4 10 0 6 -5 10 -11 10 -5 0
-7 -4 -4 -10z"/>
<path d="M3150 2506 c0 -2 7 -7 16 -10 8 -3 12 -2 9 4 -6 10 -25 14 -25 6z"/>
<path d="M3225 2500 c-3 -6 1 -7 9 -4 18 7 21 14 7 14 -6 0 -13 -4 -16 -10z"/>
<path d="M3405 2500 c-3 -6 1 -7 9 -4 18 7 21 14 7 14 -6 0 -13 -4 -16 -10z"/>
<path d="M3465 2500 c-3 -6 1 -7 9 -4 18 7 21 14 7 14 -6 0 -13 -4 -16 -10z"/>
<path d="M3645 2500 c-3 -6 1 -7 9 -4 18 7 21 14 7 14 -6 0 -13 -4 -16 -10z"/>
<path d="M3705 2500 c-3 -6 1 -7 9 -4 18 7 21 14 7 14 -6 0 -13 -4 -16 -10z"/>
<path d="M4215 2500 c-3 -5 -1 -10 4 -10 6 0 11 5 11 10 0 6 -2 10 -4 10 -3 0
-8 -4 -11 -10z"/>
</g>
</svg>
